<svg width="213" height="197" viewBox="0 0 213 197" fill="none" xmlns="http://www.w3.org/2000/svg">
<g opacity="0.5">
<path opacity="0.5" d="M152.437 32.932H38.9952V185.338H152.437V32.932Z" fill="url(#paint0_linear_1_322)"/>
</g>
<path d="M150.37 35.0009H40.4725V182.091H150.37V35.0009Z" fill="#F2F2F2"/>
<path d="M86.8544 41.2023H49.0406V42.3834H86.8544V41.2023Z" fill="#E0E0E0"/>
<path opacity="0.7" d="M86.8544 46.5186H49.0406V47.6997H86.8544V46.5186Z" fill="#D3D3D3"/>
<path d="M130.282 41.2023H92.4678V42.3834H130.282V41.2023Z" fill="#E0E0E0"/>
<path d="M136.188 74.8752H98.3746V76.0564H136.188V74.8752Z" fill="#E0E0E0"/>
<path d="M137.076 78.1226H99.2626V79.3037H137.076V78.1226Z" fill="#E0E0E0"/>
<path d="M138.85 81.3727H101.036V82.5538H138.85V81.3727Z" fill="#E0E0E0"/>
<path d="M136.188 127.153H98.3746V128.334H136.188V127.153Z" fill="#E0E0E0"/>
<path d="M137.076 130.403H99.2626V131.584H137.076V130.403Z" fill="#E0E0E0"/>
<path d="M138.85 133.65H101.036V134.831H138.85V133.65Z" fill="#E0E0E0"/>
<g opacity="0.5">
<path opacity="0.5" d="M89.5131 62.7633H49.3365V103.523H89.5131V62.7633Z" fill="url(#paint1_linear_1_322)"/>
</g>
<path d="M89.1337 63.651H49.5895V102.638H89.1337V63.651Z" fill="#F5F5F5"/>
<g opacity="0.5">
<path opacity="0.5" d="M87.8663 66.0132H50.9834V91.4134H87.8663V66.0132Z" fill="url(#paint2_linear_1_322)"/>
</g>
<path d="M87.6108 66.3091H51.2364V90.8241H87.6108V66.3091Z" fill="white"/>
<path opacity="0.4" d="M48.1527 89.9389L57.3127 75.7606L61.1528 81.962L69.4249 73.3983L76.5156 81.962L82.7184 69.2632L98.6706 94.6634L46.9713 92.8904L48.1527 89.9389Z" fill="#D3D3D3"/>
<path opacity="0.4" d="M55.2434 72.5106C56.7118 72.5106 57.9021 71.3205 57.9021 69.8525C57.9021 68.3844 56.7118 67.1943 55.2434 67.1943C53.7751 67.1943 52.5847 68.3844 52.5847 69.8525C52.5847 71.3205 53.7751 72.5106 55.2434 72.5106Z" fill="#D3D3D3"/>
<g opacity="0.5">
<path opacity="0.5" d="M89.5131 115.043H49.3365V155.803H89.5131V115.043Z" fill="url(#paint3_linear_1_322)"/>
</g>
<path d="M89.1337 115.928H49.5895V154.915H89.1337V115.928Z" fill="#F5F5F5"/>
<g opacity="0.5">
<path opacity="0.5" d="M87.8663 118.293H50.9834V143.693H87.8663V118.293Z" fill="url(#paint4_linear_1_322)"/>
</g>
<path d="M87.6108 118.587H51.2364V143.102H87.6108V118.587Z" fill="white"/>
<path opacity="0.4" d="M48.1527 142.216L57.3127 128.038L61.1528 134.242L69.4249 125.676L76.5156 134.242L82.7184 121.541L98.6706 146.941L46.9713 145.17L48.1527 142.216Z" fill="#BDBDBD"/>
<path opacity="0.4" d="M55.2434 124.79C56.7118 124.79 57.9021 123.6 57.9021 122.132C57.9021 120.664 56.7118 119.474 55.2434 119.474C53.7751 119.474 52.5847 120.664 52.5847 122.132C52.5847 123.6 53.7751 124.79 55.2434 124.79Z" fill="#BDBDBD"/>
<g opacity="0.5">
<path opacity="0.5" d="M85.3629 25.4019L55.6496 174.885L166.915 196.992L196.629 47.509L85.3629 25.4019Z" fill="url(#paint5_linear_1_322)"/>
</g>
<path d="M86.4079 27.7182L57.7311 171.987L165.521 193.403L194.197 49.1347L86.4079 27.7182Z" fill="white"/>
<path d="M169.417 51.1325L92.9204 35.9335L92.6901 37.0919L169.187 52.291L169.417 51.1325Z" fill="#E0E0E0"/>
<path d="M147.651 160.639L71.154 145.44L70.9237 146.599L147.421 161.798L147.651 160.639Z" fill="#E0E0E0"/>
<path d="M128.939 163.846L69.8271 152.101L69.5969 153.259L128.708 165.004L128.939 163.846Z" fill="#E0E0E0"/>
<path opacity="0.7" d="M90.5237 163.141L68.5033 158.766L68.273 159.925L90.2934 164.3L90.5237 163.141Z" fill="#D3D3D3"/>
<path opacity="0.7" d="M129.841 50.1969L91.5937 42.5977L91.3634 43.7561L129.611 51.3554L129.841 50.1969Z" fill="#D3D3D3"/>
<path d="M159.234 62.9618L90.2723 49.26L90.042 50.4185L159.004 64.1203L159.234 62.9618Z" fill="#E0E0E0"/>
<path opacity="0.7" d="M105.752 59.263L88.9466 55.9241L88.7163 57.0825L105.521 60.4215L105.752 59.263Z" fill="#3AD29F"/>
<path d="M164.12 77.7863L87.6235 62.5873L87.3932 63.7457L163.89 78.9448L164.12 77.7863Z" fill="#E0E0E0"/>
<g opacity="0.5">
<path opacity="0.5" d="M94.3633 90.7316L86.5322 130.129L155.204 143.773L163.035 104.376L94.3633 90.7316Z" fill="url(#paint6_linear_1_322)"/>
</g>
<path d="M162.555 104.579L94.7524 91.1073L87.0938 129.637L154.897 143.108L162.555 104.579Z" fill="white"/>
<path d="M162.796 84.4514L86.299 69.2524L86.0688 70.4109L162.566 85.6099L162.796 84.4514Z" fill="#E0E0E0"/>
<path d="M109.22 99.4023L100.817 97.7325L95.231 125.833L103.635 127.503L109.22 99.4023Z" fill="#D3D3D3"/>
<path d="M122.444 111.667L114.041 109.997L110.298 128.828L118.701 130.497L122.444 111.667Z" fill="#FF6A95"/>
<path d="M135.786 123.352L127.383 121.682L125.368 131.821L133.771 133.49L135.786 123.352Z" fill="#C62351"/>
<path d="M152.927 115.916L144.523 114.247L140.435 134.816L148.838 136.486L152.927 115.916Z" fill="#7A0325"/>
<path d="M177.445 88.5225C173.8 84.7322 169.434 81.7091 164.603 79.6312C159.772 77.5532 154.574 76.4623 149.315 76.4227C144.056 76.3832 138.842 77.3957 133.98 79.4006C129.118 81.4056 124.707 84.3626 121.005 88.0976C106.08 103.141 105.827 127.636 120.426 142.998C126.839 149.747 135.435 154.009 144.69 155.03C153.945 156.052 163.263 153.765 170.994 148.577L199.502 178.221C199.854 178.588 200.339 178.8 200.848 178.81C201.357 178.819 201.849 178.627 202.216 178.274L209.319 171.445C209.686 171.093 209.898 170.609 209.908 170.1C209.918 169.591 209.725 169.099 209.372 168.732L180.873 139.09C186.337 131.603 188.989 122.43 188.362 113.183C187.735 103.935 183.87 95.2042 177.445 88.5225ZM168.566 136.184C164.544 140.05 159.467 142.636 153.975 143.616C148.483 144.596 142.824 143.926 137.713 141.691C132.602 139.456 128.269 135.755 125.262 131.058C122.254 126.36 120.708 120.877 120.817 115.301C120.927 109.724 122.688 104.306 125.878 99.7302C129.068 95.1546 133.543 91.6274 138.738 89.5947C143.933 87.5619 149.614 87.1149 155.063 88.3102C160.512 89.5055 165.484 92.2893 169.35 96.3097C171.918 98.9793 173.934 102.128 175.284 105.577C176.634 109.026 177.291 112.707 177.219 116.409C177.146 120.112 176.344 123.764 174.859 127.157C173.375 130.55 171.236 133.618 168.566 136.184Z" fill="url(#paint7_linear_1_322)"/>
<path d="M128.126 108.01C124.954 108.01 124.949 112.939 128.126 112.939C131.304 112.939 131.304 108.01 128.126 108.01Z" fill="url(#paint8_linear_1_322)"/>
<path d="M150.238 92.2201C141.701 92.0279 133.932 96.3097 129.801 102.774C128.453 104.883 132.28 106.747 133.621 104.648C137.041 99.2966 143.54 95.8975 150.57 96.0745C157.936 96.2591 164.64 100.473 168.189 106.32C169.535 108.538 173.064 106.522 171.731 104.317C167.415 97.2354 159.057 92.43 150.238 92.2201Z" fill="url(#paint9_linear_1_322)"/>
<path d="M180.539 87.0253C176.894 83.235 172.528 80.2119 167.696 78.134C162.865 76.056 157.668 74.9651 152.409 74.9256C147.15 74.886 141.936 75.8985 137.074 77.9034C132.212 79.9084 127.801 82.8654 124.099 86.6004C109.174 101.644 108.921 126.139 123.52 141.501C129.934 148.249 138.529 152.511 147.784 153.532C157.039 154.553 166.357 152.266 174.088 147.077L202.593 176.724C202.946 177.091 203.43 177.302 203.939 177.312C204.448 177.322 204.94 177.13 205.307 176.777L212.411 169.948C212.777 169.595 212.989 169.111 212.999 168.602C213.009 168.094 212.817 167.602 212.464 167.235L183.957 137.59C189.422 130.105 192.075 120.933 191.45 111.686C190.825 102.439 186.962 93.7081 180.539 87.0253ZM171.66 134.667C167.638 138.532 162.561 141.118 157.069 142.099C151.577 143.079 145.918 142.409 140.807 140.174C135.696 137.938 131.363 134.238 128.356 129.54C125.348 124.843 123.801 119.359 123.911 113.783C124.021 108.207 125.782 102.788 128.972 98.2128C132.162 93.6372 136.637 90.11 141.832 88.0773C147.027 86.0445 152.708 85.5975 158.157 86.7928C163.605 87.988 168.578 90.7719 172.444 94.7923C175.011 97.4619 177.028 100.611 178.378 104.06C179.728 107.508 180.385 111.189 180.312 114.892C180.24 118.595 179.438 122.247 177.953 125.64C176.469 129.033 174.33 132.1 171.66 134.667Z" fill="#D3D3D3"/>
<path d="M131.22 106.51C128.048 106.51 128.043 111.439 131.22 111.439C134.397 111.439 134.397 106.51 131.22 106.51Z" fill="#D3D3D3"/>
<path d="M153.332 90.7228C144.794 90.5306 137.026 94.8124 132.895 101.277C131.546 103.386 135.374 105.25 136.715 103.151C140.135 97.7993 146.634 94.4001 153.664 94.5772C161.03 94.7618 167.734 98.9754 171.283 104.823C172.629 107.041 176.158 105.025 174.824 102.82C170.501 95.7178 162.153 90.9125 153.332 90.7228Z" fill="#D3D3D3"/>
<defs>
<linearGradient id="paint0_linear_1_322" x1="95.7159" y1="185.338" x2="95.7159" y2="32.932" gradientUnits="userSpaceOnUse">
<stop stop-color="#808080" stop-opacity="0.25"/>
<stop offset="0.54" stop-color="#808080" stop-opacity="0.12"/>
<stop offset="1" stop-color="#808080" stop-opacity="0.1"/>
</linearGradient>
<linearGradient id="paint1_linear_1_322" x1="11075.4" y1="16746.5" x2="11075.4" y2="10177.7" gradientUnits="userSpaceOnUse">
<stop stop-color="#808080" stop-opacity="0.25"/>
<stop offset="0.54" stop-color="#808080" stop-opacity="0.12"/>
<stop offset="1" stop-color="#808080" stop-opacity="0.1"/>
</linearGradient>
<linearGradient id="paint2_linear_1_322" x1="10173.1" y1="9246.66" x2="10173.1" y2="6695.72" gradientUnits="userSpaceOnUse">
<stop stop-color="#808080" stop-opacity="0.25"/>
<stop offset="0.54" stop-color="#808080" stop-opacity="0.12"/>
<stop offset="1" stop-color="#808080" stop-opacity="0.1"/>
</linearGradient>
<linearGradient id="paint3_linear_1_322" x1="11075.4" y1="25224.2" x2="11075.4" y2="18655.4" gradientUnits="userSpaceOnUse">
<stop stop-color="#808080" stop-opacity="0.25"/>
<stop offset="0.54" stop-color="#808080" stop-opacity="0.12"/>
<stop offset="1" stop-color="#808080" stop-opacity="0.1"/>
</linearGradient>
<linearGradient id="paint4_linear_1_322" x1="10173.1" y1="14549.4" x2="10173.1" y2="11998.5" gradientUnits="userSpaceOnUse">
<stop stop-color="#808080" stop-opacity="0.25"/>
<stop offset="0.54" stop-color="#808080" stop-opacity="0.12"/>
<stop offset="1" stop-color="#808080" stop-opacity="0.1"/>
</linearGradient>
<linearGradient id="paint5_linear_1_322" x1="86103.5" y1="105705" x2="99422.6" y2="38670.1" gradientUnits="userSpaceOnUse">
<stop stop-color="#808080" stop-opacity="0.25"/>
<stop offset="0.54" stop-color="#808080" stop-opacity="0.12"/>
<stop offset="1" stop-color="#808080" stop-opacity="0.1"/>
</linearGradient>
<linearGradient id="paint6_linear_1_322" x1="19466.4" y1="44505.6" x2="21632.9" y2="33601.4" gradientUnits="userSpaceOnUse">
<stop stop-color="#808080" stop-opacity="0.25"/>
<stop offset="0.54" stop-color="#808080" stop-opacity="0.12"/>
<stop offset="1" stop-color="#808080" stop-opacity="0.1"/>
</linearGradient>
<linearGradient id="paint7_linear_1_322" x1="159.775" y1="178.81" x2="159.775" y2="76.4231" gradientUnits="userSpaceOnUse">
<stop stop-color="#B3B3B3" stop-opacity="0.25"/>
<stop offset="0.54" stop-color="#B3B3B3" stop-opacity="0.1"/>
<stop offset="1" stop-color="#B3B3B3" stop-opacity="0.05"/>
</linearGradient>
<linearGradient id="paint8_linear_1_322" x1="128.126" y1="112.936" x2="128.126" y2="108.01" gradientUnits="userSpaceOnUse">
<stop stop-opacity="0.12"/>
<stop offset="0.55" stop-opacity="0.09"/>
<stop offset="1" stop-opacity="0.02"/>
</linearGradient>
<linearGradient id="paint9_linear_1_322" x1="33073.4" y1="7396.58" x2="33073.4" y2="6498.77" gradientUnits="userSpaceOnUse">
<stop stop-opacity="0.12"/>
<stop offset="0.55" stop-opacity="0.09"/>
<stop offset="1" stop-opacity="0.02"/>
</linearGradient>
</defs>
</svg>
