<svg width="165" height="148" viewBox="0 0 165 148" fill="none" xmlns="http://www.w3.org/2000/svg">
<g clip-path="url(#clip0_1_280)">
<path d="M55.3618 142.79L0 148V17.4336L55.3618 12.2233V142.79Z" fill="url(#paint0_linear_1_280)"/>
<path d="M55.3618 142.79L110.724 148V17.4336L55.3618 12.2233V142.79Z" fill="url(#paint1_linear_1_280)"/>
<path d="M165 142.79L110.724 148V17.4336L165 12.2233V142.79Z" fill="url(#paint2_linear_1_280)"/>
<path d="M55.558 139.165L1.76379 144.172V18.7185L55.558 13.7122V139.165Z" fill="#D3D3D3"/>
<path d="M55.558 139.165L109.352 144.172V18.7185L55.558 13.7122V139.165Z" fill="white"/>
<path d="M163.146 139.165L109.352 144.172V18.7185L163.146 13.7122V139.165Z" fill="#D3D3D3"/>
<path opacity="0.3" d="M55.558 25.2336L14.6979 26.6698V32.2652V39.9219V45.5173H49.3847V38.7026L55.558 38.4856L64.9645 41.3944V28.1424L55.558 25.2336Z" fill="white"/>
<path opacity="0.3" d="M55.558 130.625L9.70062 135.042V118.256L55.558 113.839V130.625Z" fill="white"/>
<path opacity="0.3" d="M50.5388 78.6658L4.68146 83.0832V66.2972L50.5388 61.8798V78.6658Z" fill="white"/>
<path opacity="0.3" d="M102.591 117.667H82.602V132.981H102.591V117.667Z" fill="white"/>
<path opacity="0.3" d="M96.0847 81.7243H76.0956V97.0378H96.0847V81.7243Z" fill="white"/>
<path opacity="0.3" d="M104.264 33.8622H84.275V49.1757H104.264V33.8622Z" fill="white"/>
<path opacity="0.3" d="M155.503 125.913L124.344 128.564V108.244L155.503 105.593V125.913Z" fill="white"/>
<path opacity="0.3" d="M151.785 54.3993L120.626 57.0498V36.73L151.785 34.0795V54.3993Z" fill="white"/>
<path d="M149.103 16.647C149.103 23.9323 136.391 44.5633 136.391 44.5633C136.391 44.5633 123.679 23.9323 123.679 16.647C123.679 9.36171 129.371 3.45578 136.391 3.45578C143.412 3.45578 149.103 9.36169 149.103 16.647Z" fill="url(#paint3_linear_1_280)"/>
<path d="M136.391 19.7148C138.514 19.7148 140.235 17.9293 140.235 15.7268C140.235 13.5242 138.514 11.7387 136.391 11.7387C134.269 11.7387 132.548 13.5242 132.548 15.7268C132.548 17.9293 134.269 19.7148 136.391 19.7148Z" fill="url(#paint4_linear_1_280)"/>
<path d="M148.154 16.6707C148.154 23.179 136.391 41.6097 136.391 41.6097C136.391 41.6097 124.628 23.179 124.628 16.6707C124.628 13.5453 125.868 10.5479 128.074 8.33791C130.28 6.12791 133.272 4.88635 136.391 4.88635C139.511 4.88635 142.503 6.12791 144.709 8.33791C146.915 10.5479 148.154 13.5453 148.154 16.6707Z" fill="white"/>
<path d="M136.391 19.4112C138.355 19.4112 139.948 17.8161 139.948 15.8485C139.948 13.8809 138.355 12.2858 136.391 12.2858C134.427 12.2858 132.835 13.8809 132.835 15.8485C132.835 17.8161 134.427 19.4112 136.391 19.4112Z" fill="#7A0325"/>
<path d="M41.8923 99.2016C41.8923 106.538 28.8031 127.315 28.8031 127.315C28.8031 127.315 15.7138 106.538 15.7138 99.2016C15.7138 91.8648 21.5741 85.9171 28.8031 85.9171C36.032 85.9171 41.8923 91.8648 41.8923 99.2016Z" fill="url(#paint5_linear_1_280)"/>
<path d="M28.8031 102.291C30.9886 102.291 32.7603 100.493 32.7603 98.2748C32.7603 96.0567 30.9886 94.2585 28.8031 94.2585C26.6176 94.2585 24.8459 96.0567 24.8459 98.2748C24.8459 100.493 26.6176 102.291 28.8031 102.291Z" fill="url(#paint6_linear_1_280)"/>
<path d="M40.5661 99.1281C40.5661 105.636 28.8031 124.067 28.8031 124.067C28.8031 124.067 17.04 105.636 17.04 99.1281C17.0394 97.5801 17.3432 96.0473 17.9341 94.617C18.525 93.1867 19.3913 91.887 20.4837 90.7923C21.576 89.6975 22.873 88.829 24.3005 88.2365C25.7279 87.644 27.2579 87.3391 28.803 87.3391C30.3482 87.3391 31.8782 87.644 33.3056 88.2365C34.7331 88.829 36.03 89.6975 37.1224 90.7923C38.2148 91.887 39.0811 93.1867 39.672 94.617C40.2629 96.0473 40.5667 97.5801 40.5661 99.1281H40.5661Z" fill="white"/>
<path d="M28.8031 101.869C30.7671 101.869 32.3593 100.274 32.3593 98.3059C32.3593 96.3383 30.7671 94.7432 28.8031 94.7432C26.839 94.7432 25.2468 96.3383 25.2468 98.3059C25.2468 100.274 26.839 101.869 28.8031 101.869Z" fill="#7A0325"/>
<path d="M104.329 100.059C104.329 106.568 92.5656 124.998 92.5656 124.998C92.5656 124.998 80.8026 106.568 80.8026 100.059C80.802 98.5113 81.1058 96.9784 81.6966 95.5481C82.2875 94.1178 83.1539 92.8182 84.2462 91.7234C85.3386 90.6286 86.6355 89.7602 88.063 89.1677C89.4904 88.5752 91.0204 88.2702 92.5656 88.2702C94.1107 88.2702 95.6407 88.5752 97.0682 89.1677C98.4956 89.7602 99.7926 90.6286 100.885 91.7234C101.977 92.8182 102.844 94.1178 103.435 95.5481C104.025 96.9784 104.329 98.5113 104.329 100.059Z" fill="white"/>
<path d="M92.5656 102.8C94.5297 102.8 96.1218 101.205 96.1218 99.2371C96.1218 97.2695 94.5297 95.6744 92.5656 95.6744C90.6015 95.6744 89.0093 97.2695 89.0093 99.2371C89.0093 101.205 90.6015 102.8 92.5656 102.8Z" fill="white"/>
<path d="M150.431 92.6099C150.431 99.1182 138.668 117.549 138.668 117.549C138.668 117.549 126.905 99.1182 126.905 92.6099C126.905 89.4845 128.144 86.4871 130.35 84.2771C132.556 82.0671 135.548 80.8255 138.668 80.8255C141.788 80.8255 144.78 82.0671 146.986 84.2771C149.192 86.4871 150.431 89.4845 150.431 92.6099Z" fill="white"/>
<path d="M138.668 95.3504C140.632 95.3504 142.224 93.7553 142.224 91.7877C142.224 89.8201 140.632 88.225 138.668 88.225C136.704 88.225 135.112 89.8201 135.112 91.7877C135.112 93.7553 136.704 95.3504 138.668 95.3504Z" fill="#7A0325"/>
<path d="M46.5148 11.7844C46.5148 18.2927 34.7518 36.7234 34.7518 36.7234C34.7518 36.7234 22.9888 18.2927 22.9888 11.7844C22.9882 10.2364 23.292 8.70354 23.8828 7.27326C24.4737 5.84297 25.3401 4.54332 26.4324 3.44854C27.5248 2.35377 28.8217 1.48532 30.2492 0.89281C31.6766 0.300298 33.2066 -0.00466919 34.7518 -0.00466919C36.2969 -0.00466919 37.8269 0.300298 39.2544 0.89281C40.6818 1.48532 41.9788 2.35377 43.0711 3.44854C44.1635 4.54332 45.0299 5.84297 45.6207 7.27326C46.2116 8.70354 46.5154 10.2364 46.5148 11.7844H46.5148Z" fill="white"/>
<path d="M34.7518 14.5249C36.7158 14.5249 38.308 12.9298 38.308 10.9622C38.308 8.99456 36.7158 7.39948 34.7518 7.39948C32.7877 7.39948 31.1955 8.99456 31.1955 10.9622C31.1955 12.9298 32.7877 14.5249 34.7518 14.5249Z" fill="#7A0325"/>
</g>
<defs>
<linearGradient id="paint0_linear_1_280" x1="27.681" y1="148" x2="27.681" y2="12.2232" gradientUnits="userSpaceOnUse">
<stop stop-color="#808080" stop-opacity="0.25"/>
<stop offset="0.53514" stop-color="#808080" stop-opacity="0.12"/>
<stop offset="1" stop-color="#808080" stop-opacity="0.1"/>
</linearGradient>
<linearGradient id="paint1_linear_1_280" x1="24786.4" y1="107914" x2="24786.4" y2="8923.75" gradientUnits="userSpaceOnUse">
<stop stop-color="#808080" stop-opacity="0.25"/>
<stop offset="0.53514" stop-color="#808080" stop-opacity="0.12"/>
<stop offset="1" stop-color="#808080" stop-opacity="0.1"/>
</linearGradient>
<linearGradient id="paint2_linear_1_280" x1="40362.3" y1="107914" x2="40362.3" y2="8923.75" gradientUnits="userSpaceOnUse">
<stop stop-color="#808080" stop-opacity="0.25"/>
<stop offset="0.53514" stop-color="#808080" stop-opacity="0.12"/>
<stop offset="1" stop-color="#808080" stop-opacity="0.1"/>
</linearGradient>
<linearGradient id="paint3_linear_1_280" x1="136.391" y1="44.5633" x2="136.391" y2="3.45578" gradientUnits="userSpaceOnUse">
<stop stop-color="#B3B3B3" stop-opacity="0.25"/>
<stop offset="0.53514" stop-color="#B3B3B3" stop-opacity="0.1"/>
<stop offset="1" stop-color="#B3B3B3" stop-opacity="0.05"/>
</linearGradient>
<linearGradient id="paint4_linear_1_280" x1="136.391" y1="19.7148" x2="136.391" y2="11.7387" gradientUnits="userSpaceOnUse">
<stop stop-opacity="0.12"/>
<stop offset="0.55135" stop-opacity="0.09"/>
<stop offset="1" stop-opacity="0.02"/>
</linearGradient>
<linearGradient id="paint5_linear_1_280" x1="8161.05" y1="30566.6" x2="8161.05" y2="21364.1" gradientUnits="userSpaceOnUse">
<stop stop-color="#B3B3B3" stop-opacity="0.25"/>
<stop offset="0.53514" stop-color="#B3B3B3" stop-opacity="0.1"/>
<stop offset="1" stop-color="#B3B3B3" stop-opacity="0.05"/>
</linearGradient>
<linearGradient id="paint6_linear_1_280" x1="28.8031" y1="102.291" x2="28.8031" y2="94.2585" gradientUnits="userSpaceOnUse">
<stop offset="0.00541" stop-opacity="0.12"/>
<stop offset="0.55135" stop-opacity="0.09"/>
<stop offset="1" stop-opacity="0.05"/>
</linearGradient>
<clipPath id="clip0_1_280">
<rect width="165" height="148" fill="white"/>
</clipPath>
</defs>
</svg>
