<svg width="39" height="39" viewBox="0 0 39 39" fill="none" xmlns="http://www.w3.org/2000/svg">
<path d="M19.5 0.40625C8.97182 0.40625 0.40625 8.97182 0.40625 19.5C0.40625 30.0282 8.97182 38.5938 19.5 38.5938C30.0282 38.5938 38.5938 30.0282 38.5938 19.5C38.5938 8.97182 30.0282 0.40625 19.5 0.40625ZM19.5 29.773C19.1369 29.773 18.7819 29.6653 18.48 29.4636C18.1781 29.2618 17.9428 28.9751 17.8038 28.6396C17.6649 28.3042 17.6285 27.935 17.6993 27.5789C17.7702 27.2227 17.945 26.8956 18.2018 26.6388C18.4586 26.3821 18.7857 26.2072 19.1418 26.1364C19.498 26.0655 19.8671 26.1019 20.2026 26.2409C20.5381 26.3798 20.8248 26.6151 21.0265 26.9171C21.2283 27.219 21.3359 27.5739 21.3359 27.9371C21.3359 28.424 21.1425 28.8909 20.7982 29.2353C20.4539 29.5796 19.9869 29.773 19.5 29.773ZM21.4938 11.308L20.9669 22.5073C20.9669 22.8968 20.8122 23.2704 20.5367 23.5458C20.2613 23.8213 19.8877 23.976 19.4982 23.976C19.1086 23.976 18.735 23.8213 18.4596 23.5458C18.1842 23.2704 18.0294 22.8968 18.0294 22.5073L17.5025 11.3136V11.309C17.491 11.0399 17.534 10.7713 17.629 10.5194C17.724 10.2674 17.869 10.0373 18.0552 9.84282C18.2415 9.64837 18.4652 9.49364 18.7129 9.38793C18.9606 9.28221 19.227 9.22772 19.4963 9.22772C19.7656 9.22772 20.0321 9.28221 20.2798 9.38793C20.5274 9.49364 20.7511 9.64837 20.9374 9.84282C21.1237 10.0373 21.2687 10.2674 21.3637 10.5194C21.4587 10.7713 21.5017 11.0399 21.4902 11.309L21.4938 11.308Z" fill="white"/>
</svg>
