<svg width="35" height="35" viewBox="0 0 35 35" fill="none" xmlns="http://www.w3.org/2000/svg">
<path d="M17.7322 0.843711C8.36465 0.717187 0.717187 8.36465 0.843711 17.7322C0.968633 26.7162 8.28377 34.0313 17.2677 34.1562C26.6369 34.2843 34.2827 26.6369 34.1546 17.2693C34.0313 8.28377 26.7161 0.968633 17.7322 0.843711ZM25.1074 11.0329L18.5218 25.969C18.1382 26.8074 16.8577 26.5296 16.8577 25.6039V18.4609C16.8577 18.3759 16.824 18.2945 16.7639 18.2344C16.7038 18.1743 16.6224 18.1406 16.5374 18.1406H9.39605C8.47355 18.1406 8.19488 16.8697 9.0301 16.4854L23.9671 9.89254C24.1267 9.81884 24.305 9.79586 24.4781 9.82671C24.6511 9.85756 24.8106 9.94074 24.9349 10.065C25.0592 10.1893 25.1424 10.3488 25.1732 10.5218C25.2041 10.6949 25.1811 10.8733 25.1074 11.0329Z" fill="#7A0325"/>
</svg>
